<?xml version="1.0" encoding="utf-8"?>
<!-- Generator: Adobe Illustrator 16.0.0, SVG Export Plug-In . SVG Version: 6.00 Build 0)  -->
<!DOCTYPE svg PUBLIC "-//W3C//DTD SVG 1.1//EN" "http://www.w3.org/Graphics/SVG/1.1/DTD/svg11.dtd">
<svg version="1.1" id="Layer_1" xmlns="http://www.w3.org/2000/svg" xmlns:xlink="http://www.w3.org/1999/xlink" x="0px" y="0px"
	 width="236.701px" height="406.559px" viewBox="-193.949 116.5 236.701 406.559"
	 enable-background="new -193.949 116.5 236.701 406.559" xml:space="preserve">
<g id="Layer_1_1_">
</g>
<g id="Layer_3">
	<g id="XMLID_79_">
		<g id="XMLID_51_">
			<path id="XMLID_57_" fill="#017E00" d="M-75.398,484.165c-22.187,0-40.363-18.043-40.363-40.363s18.043-40.363,40.363-40.363
				c22.32,0,40.363,18.043,40.363,40.363S-53.212,484.165-75.398,484.165z M-75.398,418.809c-13.9,0-25.127,11.227-25.127,25.127
				c0,13.899,11.227,25.127,25.127,25.127s25.127-11.228,25.127-25.127C-50.271,430.035-61.632,418.809-75.398,418.809z"/>
			<path id="XMLID_60_" fill="#017E00" d="M-95.848,419.61c-1.336,0-2.539-0.535-3.341-1.737l-26.73-37.423l12.296-32.879
				c0.802-2.138,3.208-3.208,5.346-2.406c2.139,0.802,3.208,3.208,2.406,5.346l-10.692,28.736l24.191,33.948
				c1.336,1.871,0.936,4.41-0.936,5.747C-94.11,419.477-95.045,419.61-95.848,419.61z"/>
			<path id="XMLID_62_" fill="#017E00" d="M-99.456,423.754c-0.535,0-1.069-0.134-1.604-0.401l-37.29-16.172l-27.8-45.042
				c-1.203-1.871-0.535-4.411,1.336-5.613c1.871-1.203,4.411-0.535,5.614,1.336l26.463,42.77l34.883,15.103
				c2.139,0.936,3.074,3.341,2.139,5.346C-96.382,422.818-97.853,423.754-99.456,423.754z"/>
			<path id="XMLID_61_" fill="#017E00" d="M-177.51,471.334c-0.936,0-1.871-0.267-2.673-0.936c-1.737-1.47-2.005-4.01-0.535-5.747
				l34.884-41.165l40.363-1.337c2.272-0.134,4.144,1.737,4.277,4.01c0.134,2.272-1.737,4.144-4.009,4.277l-36.755,1.202
				l-32.478,38.359C-175.104,470.934-176.307,471.334-177.51,471.334z"/>
			<path id="XMLID_123_" fill="#017E00" d="M-136.879,508.356c-2.272,0-4.143-1.871-4.143-4.144v-50.521l29.404-14.702
				c2.005-1.069,4.544-0.134,5.48,1.871c1.069,2.005,0.133,4.544-1.872,5.479l-24.859,12.43v45.442
				C-132.736,506.485-134.607,508.356-136.879,508.356z"/>
			<g id="XMLID_122_">
				<path id="XMLID_119_" fill="#017E00" d="M-107.074,351.714c-6.148,0-11.093-4.945-11.093-11.093
					c0-6.148,4.945-11.093,11.093-11.093c6.148,0,11.093,4.945,11.093,11.093C-95.981,346.769-100.926,351.714-107.074,351.714z
					 M-107.074,336.344c-2.406,0-4.277,1.871-4.277,4.277s1.871,4.277,4.277,4.277c2.406,0,4.277-1.871,4.277-4.277
					C-102.664,338.215-104.668,336.344-107.074,336.344z"/>
			</g>
			<g id="XMLID_118_">
				<path id="XMLID_115_" fill="#017E00" d="M-166.684,363.877c-6.148,0-11.093-4.945-11.093-11.094
					c0-6.148,4.945-11.093,11.093-11.093s11.093,4.945,11.093,11.093C-155.591,358.932-160.536,363.877-166.684,363.877z
					 M-166.684,348.506c-2.406,0-4.277,1.872-4.277,4.277c0,2.406,1.871,4.277,4.277,4.277s4.277-1.871,4.277-4.277
					C-162.407,350.378-164.278,348.506-166.684,348.506z"/>
			</g>
			<g id="XMLID_114_">
				<path id="XMLID_111_" fill="#017E00" d="M-182.856,485.101c-6.148,0-11.093-4.945-11.093-11.093
					c0-6.148,4.945-11.094,11.093-11.094s11.093,4.945,11.093,11.094C-171.763,480.155-176.708,485.101-182.856,485.101z
					 M-182.856,469.73c-2.406,0-4.277,1.871-4.277,4.277c0,2.405,1.871,4.276,4.277,4.276s4.277-1.871,4.277-4.276
					C-178.445,471.602-180.45,469.73-182.856,469.73z"/>
			</g>
			<g id="XMLID_110_">
				<path id="XMLID_101_" fill="#017E00" d="M-136.879,523.059c-6.148,0-11.093-4.945-11.093-11.094s4.945-11.093,11.093-11.093
					c6.148,0,11.093,4.944,11.093,11.093S-130.731,523.059-136.879,523.059z M-136.879,507.688c-2.406,0-4.277,1.871-4.277,4.276
					c0,2.406,1.871,4.277,4.277,4.277s4.277-1.871,4.277-4.277C-132.603,509.692-134.474,507.688-136.879,507.688z"/>
			</g>
			<path id="XMLID_99_" fill="#017E00" d="M-55.351,419.61c-0.802,0-1.604-0.268-2.406-0.802c-1.871-1.337-2.272-3.876-0.936-5.747
				l24.191-33.814l-10.692-28.736c-0.802-2.138,0.268-4.544,2.406-5.346c2.139-0.802,4.544,0.268,5.346,2.406l12.296,32.879
				l-26.731,37.423C-52.811,419.075-54.147,419.61-55.351,419.61z"/>
			<path id="XMLID_98_" fill="#017E00" d="M-51.608,423.754c-1.604,0-3.074-0.936-3.742-2.54c-0.936-2.139,0-4.544,2.139-5.346
				l34.883-15.103l26.463-42.77c1.203-1.871,3.743-2.54,5.614-1.337c1.871,1.203,2.54,3.743,1.336,5.614l-27.8,45.042l-37.29,16.172
				C-50.539,423.62-51.074,423.754-51.608,423.754z"/>
			<path id="XMLID_96_" fill="#017E00" d="M26.312,471.334c-1.203,0-2.272-0.534-3.074-1.47L-9.24,431.506l-36.754-1.203
				c-2.272-0.134-4.01-2.005-4.01-4.277c0-2.271,2.005-4.01,4.277-4.01l40.363,1.337l34.884,41.165
				c1.47,1.737,1.203,4.277-0.535,5.747C28.183,471.067,27.248,471.334,26.312,471.334z"/>
			<path id="XMLID_105_" fill="#017E00" d="M-14.319,508.356c-2.272,0-4.143-1.871-4.143-4.144v-45.442l-24.86-12.43
				c-2.005-1.069-2.807-3.475-1.871-5.479c1.069-2.005,3.475-2.807,5.48-1.871l29.404,14.702v50.521
				C-10.176,506.485-12.047,508.356-14.319,508.356z"/>
			<g id="XMLID_104_">
				<path id="XMLID_84_" fill="#017E00" d="M-44.124,351.714c-6.148,0-11.093-4.945-11.093-11.093
					c0-6.148,4.945-11.093,11.093-11.093s11.093,4.945,11.093,11.093C-33.03,346.769-37.976,351.714-44.124,351.714z
					 M-44.124,336.344c-2.406,0-4.277,1.871-4.277,4.277s1.871,4.277,4.277,4.277s4.277-1.871,4.277-4.277
					S-41.718,336.344-44.124,336.344z"/>
			</g>
			<g id="XMLID_83_">
				<path id="XMLID_77_" fill="#017E00" d="M15.486,363.877c-6.148,0-11.093-4.945-11.093-11.094
					c0-6.148,4.945-11.093,11.093-11.093s11.093,4.945,11.093,11.093C26.579,358.932,21.634,363.877,15.486,363.877z
					 M15.486,348.506c-2.406,0-4.277,1.872-4.277,4.277c0,2.406,1.871,4.277,4.277,4.277s4.277-1.871,4.277-4.277
					C19.763,350.378,17.892,348.506,15.486,348.506z"/>
			</g>
			<g id="XMLID_76_">
				<path id="XMLID_72_" fill="#017E00" d="M31.658,485.101c-6.148,0-11.093-4.945-11.093-11.093
					c0-6.148,4.945-11.094,11.093-11.094c6.148,0,11.093,4.945,11.093,11.094C42.751,480.155,37.806,485.101,31.658,485.101z
					 M31.658,469.73c-2.406,0-4.277,1.871-4.277,4.277c0,2.405,1.871,4.276,4.277,4.276s4.277-1.871,4.277-4.276
					C35.935,471.602,34.064,469.73,31.658,469.73z"/>
			</g>
			<g id="XMLID_68_">
				<path id="XMLID_55_" fill="#017E00" d="M-14.319,523.059c-6.148,0-11.093-4.945-11.093-11.094s4.945-11.093,11.093-11.093
					s11.093,4.944,11.093,11.093S-8.171,523.059-14.319,523.059z M-14.319,507.688c-2.406,0-4.277,1.871-4.277,4.276
					c0,2.406,1.871,4.277,4.277,4.277s4.277-1.871,4.277-4.277C-10.042,509.692-11.913,507.688-14.319,507.688z"/>
			</g>
			<g id="XMLID_63_">
				<path id="XMLID_102_" d="M-75.265,458.637c-8.02,0-14.702-6.549-14.702-14.701c0-8.02,6.549-14.702,14.702-14.702
					c8.153,0,14.702,6.549,14.702,14.702C-60.563,452.088-67.112,458.637-75.265,458.637z"/>
				<g id="XMLID_91_">
					<path id="XMLID_92_" fill="#8AEB00" d="M-75.265,432.174c6.549,0,11.761,5.346,11.761,11.762
						c0,6.549-5.346,11.761-11.761,11.761c-6.416,0-11.762-5.346-11.762-11.761C-87.026,437.52-81.814,432.174-75.265,432.174
						 M-75.265,426.561c-9.623,0-17.509,7.886-17.509,17.509s7.885,17.508,17.509,17.508c9.623,0,17.508-7.885,17.508-17.508
						C-57.756,434.312-65.642,426.561-75.265,426.561L-75.265,426.561z"/>
				</g>
			</g>
			<polygon id="XMLID_103_" fill="#FFFFFF" points="-82.482,422.149 -75.265,444.069 -67.78,422.417 			"/>
			<g id="XMLID_106_">
				<path id="XMLID_108_" fill="#017E00" d="M-68.449,388.736v23.79h-13.632v-24.058c-6.015,2.54-10.292,8.554-10.292,15.638
					c0,9.355,7.618,13.098,16.84,13.098c9.356,0,16.84-3.742,16.84-13.098C-58.692,397.29-62.702,391.409-68.449,388.736z"/>
			</g>
		</g>
	</g>
</g>
<g opacity="0.7">
	<g>
		<path fill="none" d="M-76.5,376.5v-260"/>
		<g>
			<g>
				<g>
					<g>
						<rect x="-113.995" y="311.5" fill="none" width="74.99" height="65"/>
					</g>
					<rect x="-79.151" y="316.302" fill-rule="evenodd" clip-rule="evenodd" fill="#231F20" width="7.5" height="12.065"/>
					<rect x="-79.151" y="337.941" fill-rule="evenodd" clip-rule="evenodd" fill="#231F20" width="7.5" height="12.065"/>
					<rect x="-79.151" y="359.51" fill-rule="evenodd" clip-rule="evenodd" fill="#231F20" width="7.5" height="12.065"/>
				</g>
			</g>
			<g>
				<g>
					<g>
						<rect x="-113.995" y="246.5" fill="none" width="74.99" height="65"/>
					</g>
					<rect x="-79.151" y="251.302" fill-rule="evenodd" clip-rule="evenodd" fill="#231F20" width="7.5" height="12.065"/>
					<rect x="-79.151" y="272.941" fill-rule="evenodd" clip-rule="evenodd" fill="#231F20" width="7.5" height="12.065"/>
					<rect x="-79.151" y="294.51" fill-rule="evenodd" clip-rule="evenodd" fill="#231F20" width="7.5" height="12.065"/>
				</g>
			</g>
			<g>
				<g>
					<g>
						<rect x="-113.995" y="181.5" fill="none" width="74.99" height="65"/>
					</g>
					<rect x="-79.151" y="186.302" fill-rule="evenodd" clip-rule="evenodd" fill="#231F20" width="7.5" height="12.065"/>
					<rect x="-79.151" y="207.941" fill-rule="evenodd" clip-rule="evenodd" fill="#231F20" width="7.5" height="12.065"/>
					<rect x="-79.151" y="229.51" fill-rule="evenodd" clip-rule="evenodd" fill="#231F20" width="7.5" height="12.065"/>
				</g>
			</g>
			<g>
				<g>
					<g>
						<rect x="-113.995" y="116.5" fill="none" width="74.99" height="65"/>
					</g>
					<rect x="-79.151" y="121.302" fill-rule="evenodd" clip-rule="evenodd" fill="#231F20" width="7.5" height="12.065"/>
					<rect x="-79.151" y="142.941" fill-rule="evenodd" clip-rule="evenodd" fill="#231F20" width="7.5" height="12.065"/>
					<rect x="-79.151" y="164.51" fill-rule="evenodd" clip-rule="evenodd" fill="#231F20" width="7.5" height="12.065"/>
				</g>
			</g>
		</g>
	</g>
</g>
</svg>
