<?xml version="1.0" encoding="utf-8"?>
<!-- Generator: Adobe Illustrator 19.0.0, SVG Export Plug-In . SVG Version: 6.00 Build 0)  -->
<svg version="1.1" id="Layer_1" xmlns="http://www.w3.org/2000/svg" xmlns:xlink="http://www.w3.org/1999/xlink" x="0px" y="0px"
	 viewBox="0 0 67.5 60" style="enable-background:new 0 0 67.5 60;" xml:space="preserve">
<style type="text/css">
	.st0{fill:#CCCCCC;}
</style>
<g id="XMLID_2_">
	<path id="XMLID_3_" class="st0" d="M51.2,11.5C46.7,7.3,40.6,4.7,34,4.7c-6.7,0-12.8,2.6-17.3,6.8l17.3,17.3L51.2,11.5z"/>
	<path id="XMLID_6_" class="st0" d="M16.9,48.7c4.5,4.1,10.5,6.6,17.1,6.6c6.6,0,12.5-2.5,17-6.6L33.9,31.7L16.9,48.7z"/>
	<path id="XMLID_7_" class="st0" d="M52.4,47.3c4.2-4.5,6.8-10.6,6.8-17.3c0-6.6-2.5-12.6-6.6-17.1L35.4,30.2L52.4,47.3z"/>
	<path id="XMLID_8_" class="st0" d="M15.2,13c-4.1,4.5-6.6,10.5-6.6,17c0,6.7,2.6,12.8,6.8,17.3l17.1-17.1L15.2,13z"/>
</g>
</svg>
